HIERARCHY
ROOT newVegas:Hips
{
	OFFSET 0.000000 96.479958 0.000000
	CHANNELS 6 Xposition Yposition Zposition Xrotation Yrotation Zrotation
	JOINT newVegas:Pelvis
	{
		OFFSET 0.000000 0.000000 0.000000
		CHANNELS 3 Xrotation Yrotation Zrotation
		JOINT newVegas:LeftUpLeg
		{
			OFFSET 18.735201 -5.666702 -4.541200
			CHANNELS 3 Xrotation Yrotation Zrotation
			JOINT newVegas:LeftLeg
			{
				OFFSET -0.021200 -31.938179 0.493100
				CHANNELS 3 Xrotation Yrotation Zrotation
				JOINT newVegas:LeftFoot
				{
					OFFSET 0.021200 -31.938179 -4.336299
					CHANNELS 3 Xrotation Yrotation Zrotation
					JOINT newVegas:LeftToeBase
					{
						OFFSET 0.943001 -26.722000 15.023500
						CHANNELS 3 Xrotation Yrotation Zrotation
						End Site
						{
							OFFSET 0.000000 30.670183 0.000000
						}
					}
				}
				JOINT newVegas:Left_PantLeg
				{
					OFFSET 0.663870 -9.044666 -1.108900
					CHANNELS 3 Xrotation Yrotation Zrotation
					End Site
					{
						OFFSET 1.415995 20.635357 0.000000
					}
				}
			}
		}
		JOINT newVegas:RightUpLeg
		{
			OFFSET -18.735201 -5.666702 -4.541200
			CHANNELS 3 Xrotation Yrotation Zrotation
			JOINT newVegas:RightLeg
			{
				OFFSET 0.018946 -31.938133 0.493100
				CHANNELS 3 Xrotation Yrotation Zrotation
				JOINT newVegas:RightFoot
				{
					OFFSET -0.018946 -31.938126 -4.336299
					CHANNELS 3 Xrotation Yrotation Zrotation
					JOINT newVegas:RightToeBase
					{
						OFFSET -0.943001 -26.722004 15.023500
						CHANNELS 3 Xrotation Yrotation Zrotation
						End Site
						{
							OFFSET 0.000000 30.670187 0.000000
						}
					}
				}
				JOINT newVegas:Right_PantLeg
				{
					OFFSET -0.661674 -9.044716 -1.108900
					CHANNELS 3 Xrotation Yrotation Zrotation
					End Site
					{
						OFFSET -1.415958 20.635269 0.000000
					}
				}
			}
		}
	}
	JOINT newVegas:Spine
	{
		OFFSET 0.000000 10.199997 -0.299500
		CHANNELS 3 Xrotation Yrotation Zrotation
		JOINT newVegas:Spine1
		{
			OFFSET 0.000000 11.900002 -1.516600
			CHANNELS 3 Xrotation Yrotation Zrotation
			JOINT newVegas:Spine2
			{
				OFFSET 0.000000 13.600006 -2.842500
				CHANNELS 3 Xrotation Yrotation Zrotation
				JOINT newVegas:Neck
				{
					OFFSET 0.000000 9.624100 -2.890100
					CHANNELS 3 Xrotation Yrotation Zrotation
					JOINT newVegas:Head
					{
						OFFSET 0.000000 14.068802 -1.351900
						CHANNELS 3 Xrotation Yrotation Zrotation
						JOINT newVegas:Hair_Back
						{
							OFFSET 0.000000 3.231903 -17.524799
							CHANNELS 3 Xrotation Yrotation Zrotation
							End Site
							{
								OFFSET 0.000000 19.849884 0.000000
							}
						}
						JOINT newVegas:Hair_Front
						{
							OFFSET 0.000000 31.260406 4.573800
							CHANNELS 3 Xrotation Yrotation Zrotation
							JOINT newVegas:Hair_Front1
							{
								OFFSET 0.000000 2.284103 11.993300
								CHANNELS 3 Xrotation Yrotation Zrotation
								JOINT newVegas:Hair_Front2
								{
									OFFSET 0.000000 2.284103 11.993300
									CHANNELS 3 Xrotation Yrotation Zrotation
									End Site
									{
										OFFSET 0.000000 12.208862 0.000000
									}
								}
							}
						}
						JOINT newVegas:Jowel
						{
							OFFSET 0.000000 -7.458206 6.864100
							CHANNELS 3 Xrotation Yrotation Zrotation
							End Site
							{
								OFFSET 0.000000 19.849884 0.000000
							}
						}
					}
				}
				JOINT newVegas:LeftShoulder
				{
					OFFSET 15.263000 10.923401 -0.547700
					CHANNELS 3 Xrotation Yrotation Zrotation
					JOINT newVegas:LeftArm
					{
						OFFSET 25.438599 -2.830597 -13.032500
						CHANNELS 3 Xrotation Yrotation Zrotation
						JOINT newVegas:LeftForeArm
						{
							OFFSET 29.960503 0.000000 0.000000
							CHANNELS 3 Xrotation Yrotation Zrotation
							JOINT newVegas:LeftHand
							{
								OFFSET 27.849251 0.000000 0.000000
								CHANNELS 3 Xrotation Yrotation Zrotation
								JOINT newVegas:LeftHandThumb1
								{
									OFFSET 4.487587 -3.305161 6.305391
									CHANNELS 3 Xrotation Yrotation Zrotation
									JOINT newVegas:LeftHandThumb2
									{
										OFFSET 5.480453 -3.164139 3.164143
										CHANNELS 3 Xrotation Yrotation Zrotation
										JOINT newVegas:LeftHandThumb3
										{
											OFFSET 5.159721 -2.978973 2.978967
											CHANNELS 3 Xrotation Yrotation Zrotation
											End Site
											{
												OFFSET 2.494507 5.926697 1.738678
											}
										}
									}
								}
								JOINT newVegas:LeftHandIndex1
								{
									OFFSET 18.578728 -0.527832 5.208049
									CHANNELS 3 Xrotation Yrotation Zrotation
									JOINT newVegas:LeftHandIndex2
									{
										OFFSET 3.192009 0.000000 0.000000
										CHANNELS 3 Xrotation Yrotation Zrotation
										JOINT newVegas:LeftHandIndex3
										{
											OFFSET 3.835129 0.000000 0.000000
											CHANNELS 3 Xrotation Yrotation Zrotation
											End Site
											{
												OFFSET -0.034599 3.816971 0.371180
											}
										}
									}
								}
								JOINT newVegas:LeftHandMiddle1
								{
									OFFSET 18.476105 0.000000 0.000000
									CHANNELS 3 Xrotation Yrotation Zrotation
									JOINT newVegas:LeftHandMiddle2
									{
										OFFSET 3.324875 0.000000 0.000000
										CHANNELS 3 Xrotation Yrotation Zrotation
										JOINT newVegas:LeftHandMiddle3
										{
											OFFSET 4.596550 0.000000 0.000000
											CHANNELS 3 Xrotation Yrotation Zrotation
											End Site
											{
												OFFSET 0.057701 4.578827 0.399218
											}
										}
									}
								}
								JOINT newVegas:LeftHandRing1
								{
									OFFSET 17.732719 0.121887 -4.201567
									CHANNELS 3 Xrotation Yrotation Zrotation
									JOINT newVegas:LeftHandRing2
									{
										OFFSET 2.733170 0.000000 0.000000
										CHANNELS 3 Xrotation Yrotation Zrotation
										JOINT newVegas:LeftHandRing3
										{
											OFFSET 3.178268 0.000000 0.000000
											CHANNELS 3 Xrotation Yrotation Zrotation
											End Site
											{
												OFFSET 0.119102 3.170624 0.185394
											}
										}
									}
								}
								JOINT newVegas:LeftHandPinky1
								{
									OFFSET 15.989624 -0.606689 -7.535461
									CHANNELS 3 Xrotation Yrotation Zrotation
									JOINT newVegas:LeftHandPinky2
									{
										OFFSET 2.538986 0.000000 0.000000
										CHANNELS 3 Xrotation Yrotation Zrotation
										JOINT newVegas:LeftHandPinky3
										{
											OFFSET 2.593102 0.000000 0.000000
											CHANNELS 3 Xrotation Yrotation Zrotation
											End Site
											{
												OFFSET -0.150902 2.584198 0.152708
											}
										}
									}
								}
							}
							JOINT newVegas:Left_Sleeve
							{
								OFFSET 0.267448 -0.649796 0.577675
								CHANNELS 3 Xrotation Yrotation Zrotation
								End Site
								{
									OFFSET 0.000000 15.991241 0.000000
								}
							}
							JOINT newVegas:Left_CapeC
							{
								OFFSET 15.715958 -8.608795 -6.935905
								CHANNELS 3 Xrotation Yrotation Zrotation
								JOINT newVegas:Left_CapeC1
								{
									OFFSET 0.000000 -8.688499 0.000000
									CHANNELS 3 Xrotation Yrotation Zrotation
									End Site
									{
										OFFSET 0.000000 8.688499 0.000000
									}
								}
							}
						}
						JOINT newVegas:Left_CapeB
						{
							OFFSET 26.118385 -8.608795 -7.079235
							CHANNELS 3 Xrotation Yrotation Zrotation
							JOINT newVegas:Left_CapeB1
							{
								OFFSET 0.000000 -8.688499 0.000000
								CHANNELS 3 Xrotation Yrotation Zrotation
								End Site
								{
									OFFSET 0.000000 8.688499 0.000000
								}
							}
						}
						JOINT newVegas:Left_CapeA
						{
							OFFSET 5.115639 -8.608795 -10.395809
							CHANNELS 3 Xrotation Yrotation Zrotation
							JOINT newVegas:Left_CapeA1
							{
								OFFSET 0.000000 -8.688499 0.000000
								CHANNELS 3 Xrotation Yrotation Zrotation
								End Site
								{
									OFFSET 0.000000 8.688499 0.000000
								}
							}
						}
					}
				}
				JOINT newVegas:RightShoulder
				{
					OFFSET -15.263000 10.923401 -0.547700
					CHANNELS 3 Xrotation Yrotation Zrotation
					JOINT newVegas:RightArm
					{
						OFFSET -25.438599 -2.830597 -13.032500
						CHANNELS 3 Xrotation Yrotation Zrotation
						JOINT newVegas:RightForeArm
						{
							OFFSET -29.960503 0.000000 0.000000
							CHANNELS 3 Xrotation Yrotation Zrotation
							JOINT newVegas:RightHand
							{
								OFFSET -27.849251 0.000000 0.000000
								CHANNELS 3 Xrotation Yrotation Zrotation
								JOINT newVegas:RightHandThumb1
								{
									OFFSET -4.487587 -3.305161 6.305391
									CHANNELS 3 Xrotation Yrotation Zrotation
									JOINT newVegas:RightHandThumb2
									{
										OFFSET -5.480453 -3.164139 3.164143
										CHANNELS 3 Xrotation Yrotation Zrotation
										JOINT newVegas:RightHandThumb3
										{
											OFFSET -5.159721 -2.978973 2.978967
											CHANNELS 3 Xrotation Yrotation Zrotation
											End Site
											{
												OFFSET -2.494507 5.926697 1.738678
											}
										}
									}
								}
								JOINT newVegas:RightHandIndex1
								{
									OFFSET -18.578728 -0.527832 5.208049
									CHANNELS 3 Xrotation Yrotation Zrotation
									JOINT newVegas:RightHandIndex2
									{
										OFFSET -3.192009 0.000000 0.000000
										CHANNELS 3 Xrotation Yrotation Zrotation
										JOINT newVegas:RightHandIndex3
										{
											OFFSET -3.835129 0.000000 0.000000
											CHANNELS 3 Xrotation Yrotation Zrotation
											End Site
											{
												OFFSET 0.034599 3.816971 0.371180
											}
										}
									}
								}
								JOINT newVegas:RightHandMiddle1
								{
									OFFSET -18.476105 0.000000 0.000000
									CHANNELS 3 Xrotation Yrotation Zrotation
									JOINT newVegas:RightHandMiddle2
									{
										OFFSET -3.324875 0.000000 0.000000
										CHANNELS 3 Xrotation Yrotation Zrotation
										JOINT newVegas:RightHandMiddle3
										{
											OFFSET -4.596550 0.000000 0.000000
											CHANNELS 3 Xrotation Yrotation Zrotation
											End Site
											{
												OFFSET -0.057701 4.578827 0.399218
											}
										}
									}
								}
								JOINT newVegas:RightHandRing1
								{
									OFFSET -17.732719 0.121887 -4.201567
									CHANNELS 3 Xrotation Yrotation Zrotation
									JOINT newVegas:RightHandRing2
									{
										OFFSET -2.733170 0.000000 0.000000
										CHANNELS 3 Xrotation Yrotation Zrotation
										JOINT newVegas:RightHandRing3
										{
											OFFSET -3.178268 0.000000 0.000000
											CHANNELS 3 Xrotation Yrotation Zrotation
											End Site
											{
												OFFSET -0.119102 3.170624 0.185394
											}
										}
									}
								}
								JOINT newVegas:RightHandPinky1
								{
									OFFSET -15.989624 -0.606689 -7.535461
									CHANNELS 3 Xrotation Yrotation Zrotation
									JOINT newVegas:RightHandPinky2
									{
										OFFSET -2.538986 0.000000 0.000000
										CHANNELS 3 Xrotation Yrotation Zrotation
										JOINT newVegas:RightHandPinky3
										{
											OFFSET -2.593102 0.000000 0.000000
											CHANNELS 3 Xrotation Yrotation Zrotation
											End Site
											{
												OFFSET 0.150902 2.584198 0.152708
											}
										}
									}
								}
							}
							JOINT newVegas:Right_CapeC
							{
								OFFSET -15.715958 -8.608795 -6.935905
								CHANNELS 3 Xrotation Yrotation Zrotation
								JOINT newVegas:Right_CapeC1
								{
									OFFSET 0.000000 -8.688499 0.000000
									CHANNELS 3 Xrotation Yrotation Zrotation
									End Site
									{
										OFFSET 0.000000 8.688499 0.000000
									}
								}
							}
							JOINT newVegas:Right_Sleeve
							{
								OFFSET -0.267448 -0.649994 0.577675
								CHANNELS 3 Xrotation Yrotation Zrotation
								End Site
								{
									OFFSET 0.000000 15.991302 0.000000
								}
							}
						}
						JOINT newVegas:Right_CapeA
						{
							OFFSET -5.115540 -8.608795 -10.395824
							CHANNELS 3 Xrotation Yrotation Zrotation
							JOINT newVegas:Right_CapeA1
							{
								OFFSET 0.000000 -8.688499 0.000000
								CHANNELS 3 Xrotation Yrotation Zrotation
								End Site
								{
									OFFSET 0.000000 8.688499 0.000000
								}
							}
						}
						JOINT newVegas:Right_CapeB
						{
							OFFSET -26.118187 -8.608795 -7.079266
							CHANNELS 3 Xrotation Yrotation Zrotation
							JOINT newVegas:Right_CapeB1
							{
								OFFSET 0.000000 -8.688499 0.000000
								CHANNELS 3 Xrotation Yrotation Zrotation
								End Site
								{
									OFFSET 0.000000 8.688499 0.000000
								}
							}
						}
					}
				}
				JOINT newVegas:Left_Collar
				{
					OFFSET 18.625099 8.655502 8.828100
					CHANNELS 3 Xrotation Yrotation Zrotation
					JOINT newVegas:Left_Collar1
					{
						OFFSET 14.783401 10.540405 -1.259500
						CHANNELS 3 Xrotation Yrotation Zrotation
						End Site
						{
							OFFSET 0.000000 18.199875 0.000000
						}
					}
				}
				JOINT newVegas:Collar_Back
				{
					OFFSET 0.000000 15.630707 -20.132601
					CHANNELS 3 Xrotation Yrotation Zrotation
					End Site
					{
						OFFSET 0.000000 22.523010 0.000000
					}
				}
				JOINT newVegas:Left_Peck
				{
					OFFSET 17.239599 -5.132599 25.482599
					CHANNELS 3 Xrotation Yrotation Zrotation
					End Site
					{
						OFFSET 0.000000 22.523010 0.000000
					}
				}
				JOINT newVegas:Right_Peck
				{
					OFFSET -17.239599 -5.132202 25.482599
					CHANNELS 3 Xrotation Yrotation Zrotation
					End Site
					{
						OFFSET 0.000000 22.523010 0.000000
					}
				}
				JOINT newVegas:Right_Collar
				{
					OFFSET -18.625099 8.655792 8.828100
					CHANNELS 3 Xrotation Yrotation Zrotation
					JOINT newVegas:Right_Collar1
					{
						OFFSET -14.783401 10.539993 -1.259500
						CHANNELS 3 Xrotation Yrotation Zrotation
						End Site
						{
							OFFSET 0.000000 18.199631 0.000000
						}
					}
				}
			}
		}
		JOINT newVegas:Belly
		{
			OFFSET 0.000000 -6.540398 9.014299
			CHANNELS 3 Xrotation Yrotation Zrotation
			End Site
			{
				OFFSET 0.000000 11.566666 0.000000
			}
		}
	}
	JOINT newVegas:ElvisFacialAnim_Joint
	{
		OFFSET 1.000000 -95.330101 -8.825800
		CHANNELS 3 Xrotation Yrotation Zrotation
		End Site
		{
			OFFSET 0.000000 35.315800 0.000000
		}
	}
}
MOTION
Frames: 4
Frame Time: 0.033333
5.382351 61.001968 -0.636145 32.702792 -50.538516 32.919801 -0.000002 0.000001 -0.000001 -93.620105 -13.224872 19.022094 87.698618 -8.250789 3.293727 -10.663086 2.143692 -25.263676 0.000000 -0.000002 -0.000000 -0.000000 0.000001 -0.000001 -62.706594 20.938961 -48.090303 94.562091 9.293584 -4.962676 -30.785063 -14.757098 39.312602 0.000000 0.000000 -0.000000 -0.000004 0.000002 -0.000001 28.456986 -1.055157 -6.453863 1.239454 1.756105 -1.604659 1.214555 1.838561 -1.731715 -4.428236 -0.045642 1.577869 -4.428239 -0.045654 1.577879 -0.000001 0.000003 -0.000002 -4.428270 -0.045657 1.577881 -4.428209 -0.045628 1.577872 -0.000001 -0.000001 0.000000 -0.000001 0.000003 -0.000001 4.882310 -8.434752 -4.559912 -48.821526 17.949302 -34.945676 -2.833387 -53.727566 0.062837 -12.598923 3.886110 6.480127 40.109941 -15.297172 -0.360494 5.639785 28.097935 11.338846 0.000000 -0.000003 -0.000005 6.882255 2.840068 -61.140418 8.247992 7.640040 -89.897891 -0.000001 -0.000002 0.000000 -2.345509 4.688863 -62.655245 8.754126 9.897075 -87.051280 -0.000002 -0.000000 0.000001 -9.042455 10.045659 -60.766192 8.524117 9.508801 -66.893035 -0.000000 0.000003 -0.000000 -17.946909 14.755017 -51.485881 8.868400 8.667054 -84.811968 -0.000001 -0.000005 -0.000002 -0.000002 0.000001 -0.000002 -0.000002 0.000001 -0.000002 -0.000003 0.000001 -0.000002 -0.000001 0.000002 0.000003 0.000000 0.000002 0.000000 -0.000001 0.000002 0.000003 -0.000001 0.000002 0.000004 3.140646 13.829322 5.365083 2.238893 -0.569968 44.434916 -33.950698 27.586092 18.539071 -27.766198 8.059812 -15.663640 -5.118586 -2.090890 11.651243 1.009430 -19.101288 -8.158528 0.000001 -0.000000 -0.000001 -0.054249 0.537656 -4.293912 0.033068 -0.087249 2.726311 -0.000001 -0.000000 0.000000 0.348992 -5.918590 -2.412651 1.426532 -4.186815 19.055960 0.000002 0.000000 0.000001 1.205947 -11.750640 -0.841226 1.790117 -3.765389 21.869825 0.000002 0.000001 0.000001 2.125893 -19.164526 6.324088 3.354769 -2.122232 13.833133 -0.000003 0.000001 0.000001 -0.000001 0.000000 -0.000002 -0.000001 -0.000000 -0.000001 -0.000001 -0.000000 -0.000002 0.000001 0.000001 0.000001 0.000001 0.000002 0.000000 0.000001 0.000001 0.000001 0.000001 0.000002 0.000001 0.000001 0.000001 -0.000002 0.000001 0.000001 -0.000002 0.000001 0.000001 -0.000002 0.000001 0.000001 -0.000002 0.000001 0.000001 -0.000002 0.000001 0.000001 -0.000002 0.000001 0.000001 -0.000002 -0.000002 -0.000000 -0.000001 -0.000002 0.000001 -0.000001 
5.448589 61.658554 -0.665694 32.041206 -50.807233 32.085985 -0.000000 -0.000002 -0.000000 -92.650505 -12.758889 19.499408 86.621374 -7.213060 3.266476 -10.296331 0.594719 -24.999597 0.000000 0.000002 0.000000 0.000002 0.000000 0.000002 -62.016950 19.927364 -47.506500 93.372326 8.489765 -4.948409 -30.283795 -14.373568 39.288850 0.000000 0.000000 -0.000000 -0.000002 0.000000 -0.000001 29.228599 -1.388233 -6.648231 1.075804 1.542755 -1.604512 1.065069 1.611757 -1.671309 -4.327154 -0.097057 1.598638 -4.327159 -0.097064 1.598632 0.000001 -0.000001 -0.000002 -4.327079 -0.097064 1.598630 -4.327203 -0.097069 1.598640 -0.000002 0.000000 0.000000 0.000001 -0.000001 0.000001 4.901397 -8.618191 -5.497514 -49.736632 17.976778 -34.388903 -2.587392 -53.376614 0.925056 -12.661577 3.827794 7.224908 40.109944 -15.297175 -0.360495 5.639784 28.097928 11.338843 0.000001 0.000000 -0.000003 6.882264 2.840066 -61.140418 8.247992 7.640043 -89.897891 -0.000002 -0.000002 0.000000 -2.345499 4.688857 -62.655238 8.754126 9.897076 -87.051280 0.000002 -0.000001 0.000001 -9.042452 10.045664 -60.766185 8.524115 9.508805 -66.893042 0.000001 -0.000002 0.000001 -17.946901 14.755015 -51.485877 8.868403 8.667046 -84.811962 -0.000003 0.000000 -0.000001 -0.000004 -0.000001 0.000001 -0.000004 -0.000001 0.000001 -0.000005 -0.000001 0.000001 0.000000 -0.000001 -0.000003 0.000001 -0.000001 -0.000004 0.000000 -0.000001 -0.000003 -0.000000 0.000000 -0.000004 3.205406 13.141027 5.831586 2.425258 -2.158289 45.340681 -34.077433 27.813394 18.582795 -27.743071 7.550215 -15.097378 -4.864888 -2.452697 11.559975 1.132734 -19.527248 -8.218196 0.000000 -0.000001 -0.000002 -0.054442 0.536887 -3.837908 0.033363 -0.087159 2.939816 0.000003 -0.000002 -0.000002 0.349297 -5.918506 -1.959430 1.426498 -4.187112 19.509015 0.000003 -0.000000 -0.000001 1.205887 -11.750698 -0.388264 1.789307 -3.763650 22.322826 0.000001 0.000002 -0.000002 2.125936 -19.164838 6.777035 3.354751 -2.122192 14.286308 0.000001 -0.000002 0.000002 0.000000 0.000001 -0.000000 -0.000001 0.000000 -0.000001 0.000000 0.000000 0.000001 -0.000001 -0.000001 -0.000001 -0.000001 0.000000 -0.000001 -0.000001 -0.000001 -0.000001 -0.000001 -0.000000 -0.000002 0.000003 -0.000001 0.000003 0.000003 -0.000001 0.000003 0.000003 -0.000001 0.000003 0.000003 -0.000001 0.000003 0.000003 -0.000001 0.000003 0.000003 -0.000001 0.000003 0.000003 -0.000001 0.000003 -0.000000 0.000000 0.000000 -0.000000 -0.000002 -0.000000 
5.015003 62.954704 -0.546713 33.024412 -51.456361 32.568869 0.000001 0.000000 -0.000000 -90.417450 -12.354000 20.474998 85.089124 -8.085896 3.086785 -10.970879 1.844423 -24.524020 -0.000000 -0.000002 0.000000 0.000002 -0.000001 0.000002 -62.049079 18.097445 -45.882902 90.970238 8.700023 -4.917742 -29.733647 -14.757220 37.935065 -0.000000 0.000000 -0.000000 -0.000000 -0.000001 -0.000001 26.956899 -1.294930 -6.953300 1.534588 1.580516 -1.590659 1.523880 1.640942 -1.677959 -4.165351 -0.117667 1.639858 -4.165334 -0.117671 1.639860 -0.000003 -0.000000 0.000000 -4.165256 -0.117656 1.639859 -4.165357 -0.117676 1.639865 -0.000001 0.000000 -0.000001 -0.000003 -0.000000 -0.000000 4.590091 -8.513055 -6.059749 -49.415903 18.912118 -34.807593 -2.968104 -52.856969 0.973364 -12.534131 3.098849 7.620258 40.109951 -15.297172 -0.360496 5.639781 28.097928 11.338848 0.000001 -0.000002 -0.000008 6.882261 2.840069 -61.140418 8.247994 7.640045 -89.897891 0.000001 0.000002 -0.000002 -2.345505 4.688860 -62.655245 8.754128 9.897075 -87.051273 -0.000000 0.000003 -0.000001 -9.042454 10.045660 -60.766185 8.524118 9.508799 -66.893049 0.000002 0.000003 -0.000002 -17.946908 14.755017 -51.485877 8.868402 8.667051 -84.811968 -0.000003 0.000000 -0.000002 -0.000001 -0.000000 0.000002 -0.000001 -0.000000 0.000002 -0.000002 -0.000000 0.000002 -0.000003 0.000000 -0.000002 -0.000002 -0.000000 -0.000003 -0.000003 0.000000 -0.000002 -0.000003 0.000001 -0.000002 2.952599 12.320688 6.094374 4.099203 -2.863088 46.840006 -33.922824 28.291076 18.885063 -27.762141 7.620364 -14.424680 -4.601107 -2.830052 11.466535 1.261138 -19.971465 -8.279473 -0.000000 -0.000002 -0.000001 -0.054547 0.536188 -3.361935 0.033662 -0.087014 3.161217 0.000003 0.000000 0.000000 0.349677 -5.918548 -1.487063 1.426574 -4.187724 19.981404 0.000002 0.000000 -0.000000 1.205827 -11.750697 0.083948 1.788533 -3.762125 22.794961 0.000001 0.000003 -0.000002 2.126041 -19.165625 7.249193 3.354766 -2.122181 14.758743 0.000000 0.000003 -0.000001 0.000002 0.000001 0.000001 0.000000 0.000001 0.000002 0.000002 0.000001 0.000001 -0.000002 -0.000001 0.000001 -0.000002 0.000000 0.000001 -0.000002 -0.000001 0.000001 -0.000002 -0.000000 0.000001 0.000003 -0.000001 0.000001 0.000003 -0.000001 0.000001 0.000003 -0.000001 0.000001 0.000003 -0.000001 0.000001 0.000003 -0.000001 0.000001 0.000003 -0.000001 0.000001 0.000003 -0.000001 0.000001 0.000001 0.000002 -0.000002 0.000001 0.000000 -0.000000 
4.288857 64.956856 -0.302650 33.292043 -52.422832 32.578742 -0.000001 -0.000000 -0.000000 -86.454335 -11.167717 21.694363 82.349426 -7.842870 2.977804 -11.794772 1.965423 -24.148387 -0.000000 -0.000002 -0.000000 -0.000000 -0.000002 0.000000 -60.924584 15.259092 -44.504823 87.140762 7.780770 -4.985912 -28.844640 -13.863032 36.932363 -0.000000 0.000000 -0.000000 -0.000002 -0.000000 -0.000004 24.082958 -1.167087 -7.053311 2.180368 1.513266 -1.719584 2.172899 1.555760 -1.812790 -3.886661 -0.095770 1.661984 -3.886679 -0.095764 1.661982 -0.000000 0.000002 -0.000003 -3.886661 -0.095785 1.661990 -3.886636 -0.095770 1.661993 0.000001 0.000002 -0.000002 -0.000000 0.000002 -0.000001 4.069160 -7.266780 -7.244592 -47.902586 19.239094 -35.778583 -2.124062 -52.525845 0.738144 -12.305960 2.223033 7.499567 40.109948 -15.297173 -0.360498 5.639785 28.097933 11.338846 0.000001 -0.000003 -0.000003 6.882259 2.840069 -61.140418 8.247995 7.640040 -89.897891 0.000004 0.000002 -0.000001 -2.345506 4.688860 -62.655238 8.754130 9.897074 -87.051280 0.000004 0.000001 -0.000001 -9.042455 10.045663 -60.766185 8.524121 9.508799 -66.893035 0.000002 0.000001 0.000001 -17.946909 14.755013 -51.485887 8.868402 8.667052 -84.811968 0.000000 -0.000005 -0.000000 -0.000002 0.000002 -0.000001 -0.000002 0.000002 -0.000001 -0.000002 0.000002 -0.000001 -0.000003 0.000000 -0.000001 -0.000003 -0.000001 -0.000000 -0.000003 0.000000 -0.000001 -0.000004 0.000000 -0.000002 2.563004 11.212292 6.945202 5.809961 -3.302432 48.161925 -32.065030 30.203223 19.173815 -27.764447 8.072696 -14.087424 -4.332672 -3.215299 11.373043 1.391923 -20.424419 -8.341053 0.000000 -0.000002 -0.000001 -0.054432 0.535473 -2.876511 0.034026 -0.086840 3.386849 -0.000001 -0.000000 -0.000003 0.350144 -5.918545 -1.005719 1.426765 -4.188629 20.462577 -0.000001 -0.000000 -0.000000 1.205800 -11.750673 0.565233 1.787822 -3.760802 23.276033 0.000002 0.000001 -0.000001 2.126133 -19.166419 7.730480 3.354768 -2.122186 15.239819 -0.000003 -0.000002 0.000003 0.000000 0.000001 -0.000000 0.000001 0.000000 -0.000000 0.000000 0.000000 -0.000001 -0.000000 0.000003 -0.000000 -0.000000 0.000003 -0.000001 -0.000000 0.000003 -0.000000 -0.000000 0.000003 -0.000001 0.000001 0.000000 -0.000000 0.000001 0.000000 -0.000000 0.000001 0.000000 -0.000000 0.000001 0.000000 -0.000000 0.000001 0.000000 -0.000000 0.000001 0.000000 -0.000000 0.000001 0.000000 -0.000000 0.000001 -0.000002 0.000001 -0.000001 -0.000000 -0.000000 
